REM DIRINDEX 1\2,1\3,1\4
REM DIRNAME cjc151,folder01,folder02,folder03
TITLE ""
FILE "167 167_Lesson 3_TOEFL_3900.mp3" MP3
  TRACK 01 AUDIO
    TITLE "4:cjc151_7278"
    INDEX 01 00:00:00
  TRACK 02 AUDIO
    TITLE "0:"
    INDEX 01 00:01:40
  TRACK 03 AUDIO
    TITLE "2:cjc151_7279"
    INDEX 01 00:02:18
  TRACK 04 AUDIO
    TITLE "0:"
    INDEX 01 00:03:45
  TRACK 05 AUDIO
    TITLE "3:cjc151_7280"
    INDEX 01 00:05:24
  TRACK 06 AUDIO
    TITLE "0:"
    INDEX 01 00:09:28
  TRACK 07 AUDIO
    TITLE "2:cjc151_7281"
    INDEX 01 00:11:05
  TRACK 08 AUDIO
    TITLE "0:"
    INDEX 01 00:12:52
  TRACK 09 AUDIO
    TITLE "3:cjc151_7282"
    INDEX 01 00:14:37
  TRACK 10 AUDIO
    TITLE "0:"
    INDEX 01 00:18:42
  TRACK 11 AUDIO
    TITLE "2:cjc151_7283"
    INDEX 01 00:20:28
  TRACK 12 AUDIO
    TITLE "0:"
    INDEX 01 00:21:72
  TRACK 13 AUDIO
    TITLE "3:cjc151_7284"
    INDEX 01 00:23:51
  TRACK 14 AUDIO
    TITLE "0:"
    INDEX 01 00:28:08
  TRACK 15 AUDIO
    TITLE "2:cjc151_7285"
    INDEX 01 00:29:60
  TRACK 16 AUDIO
    TITLE "0:"
    INDEX 01 00:31:08
  TRACK 17 AUDIO
    TITLE "3:cjc151_7286"
    INDEX 01 00:32:60
  TRACK 18 AUDIO
    TITLE "0:"
    INDEX 01 00:37:12
  TRACK 19 AUDIO
    TITLE "2:cjc151_7287"
    INDEX 01 00:38:67
  TRACK 20 AUDIO
    TITLE "0:"
    INDEX 01 00:40:05
  TRACK 21 AUDIO
    TITLE "3:cjc151_7288"
    INDEX 01 00:41:61
  TRACK 22 AUDIO
    TITLE "0:"
    INDEX 01 00:45:35
  TRACK 23 AUDIO
    TITLE "2:cjc151_7289"
    INDEX 01 00:47:32
  TRACK 24 AUDIO
    TITLE "0:"
    INDEX 01 00:49:14
  TRACK 25 AUDIO
    TITLE "3:cjc151_7290"
    INDEX 01 00:50:66
  TRACK 26 AUDIO
    TITLE "0:"
    INDEX 01 00:55:32
  TRACK 27 AUDIO
    TITLE "2:cjc151_7291"
    INDEX 01 00:57:07
  TRACK 28 AUDIO
    TITLE "0:"
    INDEX 01 00:58:71
  TRACK 29 AUDIO
    TITLE "3:cjc151_7292"
    INDEX 01 01:00:45
  TRACK 30 AUDIO
    TITLE "0:"
    INDEX 01 01:04:47
  TRACK 31 AUDIO
    TITLE "2:cjc151_7293"
    INDEX 01 01:06:24
  TRACK 32 AUDIO
    TITLE "0:"
    INDEX 01 01:07:41
  TRACK 33 AUDIO
    TITLE "3:cjc151_7294"
    INDEX 01 01:09:20
  TRACK 34 AUDIO
    TITLE "0:"
    INDEX 01 01:12:54
  TRACK 35 AUDIO
    TITLE "2:cjc151_7295"
    INDEX 01 01:14:33
  TRACK 36 AUDIO
    TITLE "0:"
    INDEX 01 01:15:72
  TRACK 37 AUDIO
    TITLE "3:cjc151_7296"
    INDEX 01 01:17:49
  TRACK 38 AUDIO
    TITLE "0:"
    INDEX 01 01:21:55
  TRACK 39 AUDIO
    TITLE "2:cjc151_7297"
    INDEX 01 01:23:32
  TRACK 40 AUDIO
    TITLE "0:"
    INDEX 01 01:24:37
  TRACK 41 AUDIO
    TITLE "3:cjc151_7298"
    INDEX 01 01:26:29
  TRACK 42 AUDIO
    TITLE "0:"
    INDEX 01 01:30:50
  TRACK 43 AUDIO
    TITLE "2:cjc151_7299"
    INDEX 01 01:32:29
  TRACK 44 AUDIO
    TITLE "0:"
    INDEX 01 01:35:55
  TRACK 45 AUDIO
    TITLE "3:cjc151_7300"
    INDEX 01 01:37:32
  TRACK 46 AUDIO
    TITLE "0:"
    INDEX 01 01:41:09
  TRACK 47 AUDIO
    TITLE "2:cjc151_7301"
    INDEX 01 01:42:63
  TRACK 48 AUDIO
    TITLE "0:"
    INDEX 01 01:44:19
  TRACK 49 AUDIO
    TITLE "3:cjc151_7302"
    INDEX 01 01:45:73
  TRACK 50 AUDIO
    TITLE "0:"
    INDEX 01 01:50:21
  TRACK 51 AUDIO
    TITLE "2:cjc151_7303"
    INDEX 01 01:52:06
  TRACK 52 AUDIO
    TITLE "0:"
    INDEX 01 01:53:20
  TRACK 53 AUDIO
    TITLE "3:cjc151_7304"
    INDEX 01 01:54:74
  TRACK 54 AUDIO
    TITLE "0:"
    INDEX 01 01:59:14
  TRACK 55 AUDIO
    TITLE "2:cjc151_7305"
    INDEX 01 02:00:74
  TRACK 56 AUDIO
    TITLE "0:"
    INDEX 01 02:02:18
  TRACK 57 AUDIO
    TITLE "3:cjc151_7306"
    INDEX 01 02:03:73
  TRACK 58 AUDIO
    TITLE "0:"
    INDEX 01 02:07:61
  TRACK 59 AUDIO
    TITLE "2:cjc151_7307"
    INDEX 01 02:09:38
  TRACK 60 AUDIO
    TITLE "0:"
    INDEX 01 02:10:53
  TRACK 61 AUDIO
    TITLE "3:cjc151_7308"
    INDEX 01 02:12:35
  TRACK 62 AUDIO
    TITLE "0:"
    INDEX 01 02:16:38
  TRACK 63 AUDIO
    TITLE "2:cjc151_7309"
    INDEX 01 02:18:18
  TRACK 64 AUDIO
    TITLE "0:"
    INDEX 01 02:19:58
  TRACK 65 AUDIO
    TITLE "3:cjc151_7310"
    INDEX 01 02:21:37
  TRACK 66 AUDIO
    TITLE "0:"
    INDEX 01 02:25:57
  TRACK 67 AUDIO
    TITLE "2:cjc151_7311"
    INDEX 01 02:27:36
  TRACK 68 AUDIO
    TITLE "0:"
    INDEX 01 02:28:59
  TRACK 69 AUDIO
    TITLE "3:cjc151_7312"
    INDEX 01 02:30:38
  TRACK 70 AUDIO
    TITLE "0:"
    INDEX 01 02:34:30
  TRACK 71 AUDIO
    TITLE "2:cjc151_7313"
    INDEX 01 02:36:17
  TRACK 72 AUDIO
    TITLE "0:"
    INDEX 01 02:37:21
  TRACK 73 AUDIO
    TITLE "3:cjc151_7314"
    INDEX 01 02:39:00
  TRACK 74 AUDIO
    TITLE "0:"
    INDEX 01 02:43:06
  TRACK 75 AUDIO
    TITLE "2:cjc151_7315"
    INDEX 01 02:44:66
  TRACK 76 AUDIO
    TITLE "0:"
    INDEX 01 02:46:39
  TRACK 77 AUDIO
    TITLE "3:cjc151_7316"
    INDEX 01 02:48:21
  TRACK 78 AUDIO
    TITLE "0:"
    INDEX 01 02:52:73
  TRACK 79 AUDIO
    TITLE "2:cjc151_7317"
    INDEX 01 02:54:54
  TRACK 80 AUDIO
    TITLE "0:"
    INDEX 01 02:56:26
  TRACK 81 AUDIO
    TITLE "3:cjc151_7318"
    INDEX 01 02:58:05
  TRACK 82 AUDIO
    TITLE "0:"
    INDEX 01 03:01:31
  TRACK 83 AUDIO
    TITLE "2:cjc151_7319"
    INDEX 01 03:03:10
  TRACK 84 AUDIO
    TITLE "0:"
    INDEX 01 03:04:22
  TRACK 85 AUDIO
    TITLE "3:cjc151_7320"
    INDEX 01 03:06:01
  TRACK 86 AUDIO
    TITLE "0:"
    INDEX 01 03:10:63
  TRACK 87 AUDIO
    TITLE "2:cjc151_7321"
    INDEX 01 03:12:45
  TRACK 88 AUDIO
    TITLE "0:"
    INDEX 01 03:13:71
  TRACK 89 AUDIO
    TITLE "3:cjc151_7322"
    INDEX 01 03:15:43
  TRACK 90 AUDIO
    TITLE "0:"
    INDEX 01 03:19:56
